<svg width="40" height="40" viewBox="0 0 40 40" fill="none" xmlns="http://www.w3.org/2000/svg">
<path d="M5.92219 32.4844L14.3284 9.3438C14.4004 9.14579 14.5212 8.96917 14.6797 8.83037C14.8382 8.69157 15.0293 8.59508 15.235 8.54987C15.4408 8.50466 15.6547 8.5122 15.8568 8.57178C16.0589 8.63136 16.2426 8.74106 16.3909 8.89068L31.1097 23.6094C31.2593 23.7578 31.369 23.9415 31.4286 24.1436C31.4882 24.3457 31.4957 24.5595 31.4505 24.7653C31.4053 24.9711 31.3088 25.1621 31.17 25.3206C31.0312 25.4791 30.8546 25.6 30.6566 25.6719L7.51594 34.0782C7.29331 34.1633 7.0508 34.1821 6.81771 34.1324C6.58461 34.0827 6.37089 33.9665 6.20236 33.798C6.03383 33.6295 5.91769 33.4158 5.86798 33.1827C5.81826 32.9496 5.83709 32.7071 5.92219 32.4844V32.4844Z" stroke="black" stroke-width="2" stroke-linecap="round" stroke-linejoin="round"/>
<path d="M26.25 11.25C26.25 11.25 26.25 7.5 30 7.5C33.75 7.5 33.75 3.75 33.75 3.75" stroke="black" stroke-width="2" stroke-linecap="round" stroke-linejoin="round"/>
<path d="M16 31L9 24" stroke="black" stroke-width="2" stroke-linecap="round" stroke-linejoin="round"/>
<path d="M22.5 2.5V6.25" stroke="black" stroke-width="2" stroke-linecap="round" stroke-linejoin="round"/>
<path d="M33.75 17.5L36.25 20" stroke="black" stroke-width="2" stroke-linecap="round" stroke-linejoin="round"/>
<path d="M33.75 12.5L37.5 11.25" stroke="black" stroke-width="2" stroke-linecap="round" stroke-linejoin="round"/>
<path d="M12 15.75L24.25 28" stroke="black" stroke-width="2" stroke-linecap="round" stroke-linejoin="round"/>
</svg>
