<svg width="40" height="40" viewBox="0 0 40 40" fill="none" xmlns="http://www.w3.org/2000/svg">
<path d="M14.7031 28.8438C12.9219 34.1406 5.85938 34.1406 5.85938 34.1406C5.85938 34.1406 5.85938 27.0781 11.1563 25.2969" stroke="black" stroke-width="2" stroke-linecap="round" stroke-linejoin="round"/>
<path d="M30.6094 16.4688L20 27.0782L12.9219 20.0001L23.5313 9.39068C27.5469 5.37506 31.5625 5.42193 33.2813 5.67193C33.5465 5.70732 33.7927 5.829 33.9819 6.01819C34.1711 6.20739 34.2927 6.45359 34.3281 6.71881C34.5781 8.43756 34.625 12.4532 30.6094 16.4688Z" stroke="black" stroke-width="2" stroke-linecap="round" stroke-linejoin="round"/>
<path d="M28.8438 18.2344V28.3281C28.8391 28.6578 28.7043 28.9723 28.4687 29.2031L23.4219 34.2656C23.2618 34.4256 23.0612 34.539 22.8417 34.5939C22.6221 34.6488 22.3918 34.6431 22.1753 34.5773C21.9587 34.5115 21.7641 34.3882 21.6121 34.2205C21.4602 34.0528 21.3566 33.847 21.3125 33.625L20 27.0781" stroke="black" stroke-width="2" stroke-linecap="round" stroke-linejoin="round"/>
<path d="M21.766 11.1562H11.6722C11.3425 11.1609 11.028 11.2957 10.7972 11.5313L5.73475 16.5781C5.57482 16.7382 5.46135 16.9388 5.40646 17.1583C5.35158 17.3779 5.35732 17.6082 5.42308 17.8247C5.48885 18.0413 5.61217 18.2359 5.77988 18.3879C5.94759 18.5398 6.15341 18.6434 6.37537 18.6875L12.9222 20" stroke="black" stroke-width="2" stroke-linecap="round" stroke-linejoin="round"/>
</svg>
