<svg width="31" height="21" viewBox="0 0 31 21" fill="none" xmlns="http://www.w3.org/2000/svg">
<path d="M28.6783 0.34494H2.32167C1.03941 0.34494 0 1.38435 0 2.66661V18.3337C0 19.6159 1.03941 20.6553 2.32167 20.6553H28.6783C29.9605 20.6553 31 19.6159 31 18.3337V2.66661C31 1.38435 29.9606 0.34494 28.6783 0.34494Z" fill="#41479B"/>
<path d="M30.9678 2.28271C30.7849 1.18324 29.8298 0.344788 28.6783 0.344788H28.0743L18.1724 6.8322V0.344848H12.8276V6.83226L2.92575 0.344848H2.32167C1.17025 0.344848 0.215123 1.18324 0.0321504 2.28277L8.49527 7.82766H0V13.1725H8.49527L0.0321504 18.7173C0.215123 19.8167 1.17025 20.6552 2.32167 20.6552H2.92575L12.8276 14.1678V20.6552H18.1724V14.1678L28.0743 20.6552H28.6783C29.8298 20.6552 30.7849 19.8168 30.9678 18.7173L22.5047 13.1724H31V7.82753H22.5047L30.9678 2.28271Z" fill="#F5F5F5"/>
<path d="M17.1035 0.34494H13.8965V8.89664H0V12.1036H13.8965V20.6553H17.1035V12.1036H31V8.89664H17.1035V0.34494Z" fill="#FF4B55"/>
<path d="M1.5011 20.5055L12.7981 13.1724H10.8347L0.558447 19.843C0.812091 20.1394 1.13627 20.3673 1.5011 20.5055ZM20.9727 13.1724H19.0093L29.951 20.2749C30.2579 20.0732 30.5128 19.802 30.695 19.4832L20.9727 13.1724ZM0.245117 1.62837L9.79518 7.82758H11.7586L0.936926 0.802935C0.64505 1.0203 0.408123 1.30299 0.245117 1.62837ZM20.1358 7.82758L30.4309 1.14472C30.1744 0.849027 29.8475 0.622859 29.4804 0.487183L18.1724 7.82758H20.1358Z" fill="#FF4B55"/>
</svg>
