<svg width="30" height="30" viewBox="0 0 30 30" fill="none" xmlns="http://www.w3.org/2000/svg">
<g clip-path="url(#clip0_2441_3417)">
<path d="M10.0757 12.3486C11.1038 11.3206 11.1038 9.64783 10.0757 8.61974L6.46006 5.0041C5.90699 4.45097 5.14029 4.17072 4.3573 4.23517C3.58926 4.2984 2.89457 4.68992 2.45143 5.30925C2.35943 5.43781 2.27061 5.56824 2.18359 5.69972L9.45408 12.9702L10.0757 12.3486Z" fill="black"/>
<path d="M24.9955 23.5395L21.3798 19.9239C20.3519 18.8959 18.679 18.8958 17.6509 19.9239L17.0293 20.5455L24.3001 27.8163C24.4316 27.7292 24.5618 27.6401 24.6903 27.5481C25.3096 27.105 25.7011 26.4103 25.7644 25.6423C25.8289 24.8591 25.5486 24.0927 24.9955 23.5395Z" fill="black"/>
<path d="M14.5437 21.9388C13.8394 21.9388 13.1773 21.6645 12.6793 21.1665L8.83317 17.3204C8.33518 16.8224 8.06084 16.1603 8.06084 15.456C8.06084 15.0559 8.14961 14.6695 8.31731 14.319L1.28594 7.2876C0.296879 9.36434 -0.140816 11.691 0.0397697 14.0265C0.28311 17.1735 1.64026 20.1298 3.86131 22.3508L7.64893 26.1384C9.86987 28.3594 12.8262 29.7165 15.9733 29.9599C16.3172 29.9865 16.6608 29.9997 17.0035 29.9997C18.9884 29.9997 20.9412 29.5572 22.7121 28.7138L15.6806 21.6823C15.3302 21.8501 14.9438 21.9388 14.5437 21.9388Z" fill="black"/>
<path d="M17.6953 0C17.2099 0 16.8164 0.393516 16.8164 0.878906C16.8164 1.3643 17.2099 1.75781 17.6953 1.75781C23.5109 1.75781 28.2422 6.48914 28.2422 12.3047C28.2422 12.7901 28.6357 13.1836 29.1211 13.1836C29.6065 13.1836 30 12.7901 30 12.3047C30 5.51988 24.4801 0 17.6953 0Z" fill="black"/>
<path d="M17.6953 12.3039C17.6953 12.3039 17.6953 12.3042 17.6953 12.3047C17.6953 12.7901 18.0888 13.1836 18.5742 13.1836C19.0596 13.1836 19.4531 12.7901 19.4531 12.3047C19.4531 11.3354 18.6646 10.5469 17.6953 10.5469C17.2099 10.5469 16.8164 10.94 16.8164 11.4254C16.8164 11.9108 17.2099 12.3039 17.6953 12.3039Z" fill="black"/>
<path d="M17.6953 8.78906C19.6338 8.78906 21.2109 10.3662 21.2109 12.3047C21.2109 12.7901 21.6045 13.1836 22.0898 13.1836C22.5752 13.1836 22.9688 12.7901 22.9688 12.3047C22.9688 9.39691 20.6031 7.03125 17.6953 7.03125C17.2099 7.03125 16.8164 7.42477 16.8164 7.91016C16.8164 8.39555 17.2099 8.78906 17.6953 8.78906Z" fill="black"/>
<path d="M17.6953 3.51562C17.2099 3.51562 16.8164 3.90914 16.8164 4.39453C16.8164 4.87992 17.2099 5.27344 17.6953 5.27344C21.5723 5.27344 24.7266 8.42766 24.7266 12.3047C24.7266 12.7901 25.1201 13.1836 25.6055 13.1836C26.0909 13.1836 26.4844 12.7901 26.4844 12.3047C26.4844 7.4584 22.5416 3.51562 17.6953 3.51562Z" fill="black"/>
</g>
<defs>
<clipPath id="clip0_2441_3417">
<rect width="30" height="30" fill="white"/>
</clipPath>
</defs>
</svg>
